<svg xmlns="http://www.w3.org/2000/svg" width="11.818" height="10" viewBox="0 0 11.818 10">
  <defs>
    <style>
      .cls-1 {
        fill: #fff;
      }
    </style>
  </defs>
  <path id="Trazado_83" data-name="Trazado 83" class="cls-1" d="M-20.526-10.195a.915.915,0,0,0-.909-.909.915.915,0,0,0-.909.909.915.915,0,0,0,.909.909A.915.915,0,0,0-20.526-10.195Zm6.364,0a.915.915,0,0,0-.909-.909.915.915,0,0,0-.909.909.915.915,0,0,0,.909.909A.915.915,0,0,0-14.162-10.195Zm.909-7.727a.458.458,0,0,0-.455-.455h-8.53c-.071-.341-.085-.909-.561-.909h-1.818a.458.458,0,0,0-.455.455.458.458,0,0,0,.455.455h1.449l1.257,5.845a3.658,3.658,0,0,0-.433.973.458.458,0,0,0,.455.455h7.273a.458.458,0,0,0,.455-.455.458.458,0,0,0-.455-.455h-6.534a1.076,1.076,0,0,0,.17-.455,2.361,2.361,0,0,0-.092-.5l7.415-.866a.466.466,0,0,0,.4-.455Z" transform="translate(25.071 19.286)"/>
</svg>
